<svg width="700" height="700" viewBox="0 0 700 700" fill="none" xmlns="http://www.w3.org/2000/svg">
<path fill-rule="evenodd" clip-rule="evenodd" d="M 252 42 C 252 18.804 270.804 0 294 0 C 448.64 0 574 125.36 574 280 C 574 303.196 555.196 322 532 322 C 508.804 322 490 303.196 490 280 C 490 171.752 402.248 84 294 84 C 270.804 84 252 65.196 252 42 Z" fill="#FFFFFF"/>
<path fill-rule="evenodd" clip-rule="evenodd" d="M 448 658 C 448 681.196 429.196 700 406 700 C 251.36 700 126 574.64 126 420 C 126 396.804 144.804 378 168 378 C 191.196 378 210 396.804 210 420 C 210 528.248 297.752 616 406 616 C 429.196 616 448 634.804 448 658 Z" fill="#FFFFFF"/>
<path fill-rule="evenodd" clip-rule="evenodd" d="M 42 448 C 18.804 448 0 429.196 0 406 C 0 251.36 125.36 126 280 126 C 303.196 126 322 144.804 322 168 C 322 191.196 303.196 210 280 210 C 171.752 210 84 297.752 84 406 C 84 429.196 65.196 448 42 448 Z" fill="#FFFFFF"/>
<path fill-rule="evenodd" clip-rule="evenodd" d="M 658 252 C 681.196 252 700 270.804 700 294 C 700 448.64 574.64 574 420 574 C 396.804 574 378 555.196 378 532 C 378 508.804 396.804 490 420 490 C 528.248 490 616 402.248 616 294 C 616 270.804 634.804 252 658 252 Z" fill="#FFFFFF"/>
</svg>